<?xml version="1.0" encoding="utf-8"?>
<!-- Generator: Adobe Illustrator 27.2.0, SVG Export Plug-In . SVG Version: 6.00 Build 0)  -->
<svg version="1.1" id="Слой_1" xmlns="http://www.w3.org/2000/svg" xmlns:xlink="http://www.w3.org/1999/xlink" x="0px" y="0px"
	 viewBox="0 0 320 278" style="enable-background:new 0 0 320 278;" xml:space="preserve">
<style type="text/css">
	.st0{fill:#2D4A3E;}
</style>
<g transform="translate(0.000000,278.000000) scale(0.100000,-0.100000)">
	<path class="st0" d="M1298,2290c-46-14-92-47-111-80c-14-22-24-30-35-25c-38,15-113,17-163,5c-63-15-127-69-154-130
		c-16-34-22-40-39-35c-12,4-51,9-89,12c-58,5-74,2-121-21c-61-30-102-77-120-139c-12-42-12-42-66-48c-94-10-150-53-191-144
		c-18-40-23-68-23-140c1-117,15-158,159-450c159-321,230-432,294-456c20-8,168-39,426-89c28-5,190-32,360-60c281-46,365-59,563-90
		c34-6,90-15,125-20c34-6,161-24,282-40c121-17,237-32,259-35l39-6l-9,73c-5,40-7,114-4,163c10,183,6,409-9,443c-16,39-38,42-47,6
		c-8-31,2-250,17-367c13-103,11-107-43-96c-24,4-158,26-298,49C1478,701,768,820,751,830c-9,4-79,120-155,257
		c-155,277-144,258-152,251c-5-6,217-411,265-482c16-25,37-43,56-48c31-8,706-121,1210-203c154-24,305-49,335-54s119-20,197-32
		c160-26,147-15,159-131c4-38,3-68-1-68c-70,0-1306,194-1695,266c-365,67-353,62-432,183c-74,113-302,576-321,654
		c-50,197,11,348,157,388c51,14,81,1,89-39c3-16,17-42,30-57c19-23,29-27,50-21c21,5,27,12,27,34c0,28-44,82-67,82c-6,0-15,6-21,13
		c-21,25,6,88,58,139c61,59,128,77,212,56l53-13l5-53c3-31,12-57,20-62c25-16,49-11,65,14c20,30,8,66-29,85c-31,17-32,30-6,80
		c38,76,104,111,208,111c79,0,90-9,84-68c-5-56,10-92,38-92c41,0,53,71,20,113c-27,33-25,49,7,88c37,43,79,59,160,59
		c134,0,213-73,213-196c0-35-5-75-12-89c-10-23-16-25-81-25c-94,0-207-39-432-150c-297-147-520-289-554-353c-61-116,249-48,611,134
		c188,94,361,220,421,306c28,39,34,43,62,37c136-28,466-303,818-681c87-94,165-180,174-193l16-23l-59,7c-32,4-135,18-229,31
		c-93,14-271,38-395,55s-286,39-360,50c-74,10-254,35-400,55s-323,45-395,55c-117,17-147,18-134,6c2-2,72-14,154-25
		c83-11,182-25,220-31c77-11,272-38,495-69c236-33,648-90,900-126c129-18,237-31,239-29c19,17-494,546-686,706
		c-158,132-310,228-359,228c-13,0-15,5-8,28c5,15,9,59,9,99c0,63-3,76-30,115C1519,2282,1398,2320,1298,2290z M1200,2120
		c15-28,9-75-10-75c-11,0-16,13-18,48C1169,2143,1181,2155,1200,2120z M874,1961c25-27,17-56-14-56c-22,0-25,5-28,38
		C828,1985,845,1993,874,1961z M1550,1946c0-26-135-149-240-218c-189-125-484-253-672-292c-198-41-141,46,140,213
		c114,68,344,185,467,238C1388,1949,1550,1980,1550,1946z M532,1772c21-19,29-34,25-45c-16-41-77-1-77,50
		C480,1807,493,1806,532,1772z M2667,787c3-219-16-186-24,43c-4,131-3,153,8,142C2662,962,2665,917,2667,787z"/>
</g>
</svg>
