<?xml version="1.0" encoding="UTF-8"?>
<svg id="_Слой_1" data-name="Слой 1" xmlns="http://www.w3.org/2000/svg" viewBox="0 0 255.01 204.5">
  <defs>
    <style>
      .cls-1 {
        fill: #fff;
        stroke: #fff;
        stroke-miterlimit: 10;
        stroke-width: 4px;
      }
    </style>
  </defs>
  <path class="cls-1" d="m113.2,3.02c-4.6,1.4-9.2,4.7-11.1,8-1.4,2.2-2.4,3-3.5,2.5-3.8-1.5-11.3-1.7-16.3-.5-6.3,1.5-12.7,6.9-15.4,13-1.6,3.4-2.2,4-3.9,3.5-1.2-.4-5.1-.9-8.9-1.2-5.8-.5-7.4-.2-12.1,2.1-6.1,3-10.2,7.7-12,13.9q-1.2,4.2-6.6,4.8c-9.4,1-15,5.3-19.1,14.4-1.8,4-2.3,6.8-2.3,14,.1,11.7,1.5,15.8,15.9,45,15.9,32.1,23,43.2,29.4,45.6,2,.8,16.8,3.9,42.6,8.9,2.8.5,19,3.2,36,6,28.1,4.6,36.5,5.9,56.3,9,3.4.6,9,1.5,12.5,2,3.4.6,16.1,2.4,28.2,4,12.1,1.7,23.7,3.2,25.9,3.5l3.9.6-.9-7.3c-.5-4-.7-11.4-.4-16.3,1-18.3.6-40.9-.9-44.3-1.6-3.9-3.8-4.2-4.7-.6-.8,3.1.2,25,1.7,36.7,1.3,10.3,1.1,10.7-4.3,9.6-2.4-.4-15.8-2.6-29.8-4.9-82.2-13.1-153.2-25-154.9-26-.9-.4-7.9-12-15.5-25.7-15.5-27.7-14.4-25.8-15.2-25.1-.5.6,21.7,41.1,26.5,48.2,1.6,2.5,3.7,4.3,5.6,4.8,3.1.8,70.6,12.1,121,20.3,15.4,2.4,30.5,4.9,33.5,5.4s11.9,2,19.7,3.2c16,2.6,14.7,1.5,15.9,13.1.4,3.8.3,6.8-.1,6.8-7,0-130.6-19.4-169.5-26.6-36.5-6.7-35.3-6.2-43.2-18.3-7.4-11.3-30.2-57.6-32.1-65.4C.1,70.02,6.2,54.92,20.8,50.92c5.1-1.4,8.1-.1,8.9,3.9.3,1.6,1.7,4.2,3,5.7,1.9,2.3,2.9,2.7,5,2.1,2.1-.5,2.7-1.2,2.7-3.4,0-2.8-4.4-8.2-6.7-8.2-.6,0-1.5-.6-2.1-1.3-2.1-2.5.6-8.8,5.8-13.9,6.1-5.9,12.8-7.7,21.2-5.6l5.3,1.3.5,5.3c.3,3.1,1.2,5.7,2,6.2,2.5,1.6,4.9,1.1,6.5-1.4,2-3,.8-6.6-2.9-8.5-3.1-1.7-3.2-3-.6-8,3.8-7.6,10.4-11.1,20.8-11.1,7.9,0,9,.9,8.4,6.8-.5,5.6,1,9.2,3.8,9.2,4.1,0,5.3-7.1,2-11.3-2.7-3.3-2.5-4.9.7-8.8,3.7-4.3,7.9-5.9,16-5.9,13.4,0,21.3,7.3,21.3,19.6,0,3.5-.5,7.5-1.2,8.9-1,2.3-1.6,2.5-8.1,2.5-9.4,0-20.7,3.9-43.2,15-29.7,14.7-52,28.9-55.4,35.3-6.1,11.6,24.9,4.8,61.1-13.4,18.8-9.4,36.1-22,42.1-30.6,2.8-3.9,3.4-4.3,6.2-3.7,13.6,2.8,46.6,30.3,81.8,68.1,8.7,9.4,16.5,18,17.4,19.3l1.6,2.3-5.9-.7c-3.2-.4-13.5-1.8-22.9-3.1-9.3-1.4-27.1-3.8-39.5-5.5s-28.6-3.9-36-5c-7.4-1-25.4-3.5-40-5.5s-32.3-4.5-39.5-5.5c-11.7-1.7-14.7-1.8-13.4-.6.2.2,7.2,1.4,15.4,2.5,8.3,1.1,18.2,2.5,22,3.1,7.7,1.1,27.2,3.8,49.5,6.9,23.6,3.3,64.8,9,90,12.6,12.9,1.8,23.7,3.1,23.9,2.9,1.9-1.7-49.4-54.6-68.6-70.6-15.8-13.2-31-22.8-35.9-22.8-1.3,0-1.5-.5-.8-2.8.5-1.5.9-5.9.9-9.9,0-6.3-.3-7.6-3-11.5C135.3,3.82,123.2.02,113.2,3.02Zm-9.8,17c1.5,2.8.9,7.5-1,7.5-1.1,0-1.6-1.3-1.8-4.8-.3-5,.9-6.2,2.8-2.7Zm-32.6,15.9c2.5,2.7,1.7,5.6-1.4,5.6-2.2,0-2.5-.5-2.8-3.8-.4-4.2,1.3-5,4.2-1.8Zm67.6,1.5c0,2.6-13.5,14.9-24,21.8-18.9,12.5-48.4,25.3-67.2,29.2-19.8,4.1-14.1-4.6,14-21.3,11.4-6.8,34.4-18.5,46.7-23.8,14.3-6.2,30.5-9.3,30.5-5.9Zm-101.8,17.4c2.1,1.9,2.9,3.4,2.5,4.5-1.6,4.1-7.7.1-7.7-5,0-3,1.3-2.9,5.2.5Zm213.5,98.5c.3,21.9-1.6,18.6-2.4-4.3-.4-13.1-.3-15.3.8-14.2,1.1,1,1.4,5.5,1.6,18.5Z"/>
</svg>